<svg width="32px" height="32px" viewBox="0 0 256 256" version="1.1" xmlns="http://www.w3.org/2000/svg">
    <rect x="0" width="256" height="256" rx="15" fill="#000" />
    <text fill="#fff" font-family="Verdana,DejaVu Sans,sans-serif" font-size="210" x="30" y="205">L</text>
    <path style="fill:white;stroke:white;stroke-width:1px;" d="M150,90c0.000,0.000,-13.786,-7.669,-17.500,-14.375c-3.750,-6.771,-5.000,-26.250,-5.000,-26.250c0.000,0.000,22.708,0.729,30.000,4.375c6.636,3.317,13.750,17.500,13.750,17.500c0.000,0.000,5.704,-10.054,10.000,-13.750c4.479,-3.854,16.875,-8.125,16.875,-8.125c0.000,0.000,5.833,1.146,3.750,8.125c-0.854,2.860,-9.197,2.382,-12.500,6.250c-4.271,5.000,-13.125,21.250,-13.125,21.250c0.000,0.000,12.152,2.557,20.000,13.750c4.593,6.551,3.265,12.102,5.000,18.125c1.771,6.146,1.896,13.396,5.625,18.750c4.063,5.833,10.207,12.422,11.250,20.000c3.542,25.729,-3.333,28.438,-8.750,36.875c-4.942,7.698,-15.625,12.083,-23.750,13.750c-5.714,1.172,-14.167,3.224,-17.500,0.000c-4.417,-4.274,7.361,5.226,-19.375,-0.625c-6.887,-1.507,-16.146,-7.188,-21.250,-12.500c-4.907,-5.108,-9.375,-19.375,-9.375,-19.375c0.000,0.000,-1.250,-18.542,2.500,-25.000c3.482,-5.997,10.104,-12.292,12.500,-17.500c1.964,-4.270,3.034,-9.051,3.125,-13.750c0.104,-5.417,1.458,-12.917,5.000,-18.750c2.141,-3.526,8.750,-8.750,8.750,-8.750z" />
</svg>
